# Blender 4.1.1
# www.blender.org
mtllib conveyor_shaft.mtl
o Axis.005
v 0.625000 1.000000 0.375000
v 0.375000 1.000000 0.375000
v 0.625000 -0.000000 0.375000
v 0.375000 -0.000000 0.375000
v 0.375000 1.000000 0.625000
v 0.625000 1.000000 0.625000
v 0.375000 -0.000000 0.625000
v 0.625000 -0.000000 0.625000
v -0.500000 0.106250 1.500000
v -0.500000 0.106250 -0.500000
v 1.500000 0.106250 -0.500000
v 1.500000 0.106250 1.500000
vn -1.0000 -0.0000 -0.0000
vn -0.0000 -0.0000 -1.0000
vn 1.0000 -0.0000 -0.0000
vn -0.0000 -0.0000 1.0000
vn -0.0000 1.0000 -0.0000
vn -0.0000 -1.0000 -0.0000
vt 0.375000 0.000000
vt 0.625000 0.000000
vt 0.625000 1.000000
vt 0.375000 1.000000
vt 0.375000 0.375000
vt 0.625000 0.375000
vt 0.625000 0.625000
vt 0.375000 0.625000
vt 1.000000 1.000000
vt 0.000000 1.000000
vt 0.000000 0.000000
vt 1.000000 0.000000
s 0
usemtl axis
f 4/1/1 7/2/1 5/3/1 2/4/1
f 3/1/2 4/2/2 2/3/2 1/4/2
f 8/1/3 3/2/3 1/3/3 6/4/3
f 7/1/4 8/2/4 6/3/4 5/4/4
usemtl axis_top
f 6/5/5 1/6/5 2/7/5 5/8/5
f 7/5/6 4/6/6 3/7/6 8/8/6
usemtl bullwheel
f 12/9/6 9/10/6 10/11/6 11/12/6
