# Blender 4.1.1
# www.blender.org
mtllib item.mtl
o Axis.003
v 1.437500 0.750000 0.937500
v 1.437500 0.125000 0.937500
v 1.437500 0.750000 1.625000
v 1.437500 0.125000 1.625000
v 1.000000 0.743750 0.937500
v 1.000000 0.743750 1.625000
v 1.000000 0.125000 0.937500
v 1.000000 0.125000 1.625000
v 1.437500 0.118750 0.937500
v 1.437500 0.118750 1.625000
v -0.437500 0.750000 0.937500
v -0.437500 0.125000 0.937500
v -0.437500 0.750000 1.625000
v -0.437500 0.125000 1.625000
v 0.000000 0.743750 0.937500
v 0.000000 0.743750 1.625000
v 0.000000 0.125000 0.937500
v 0.000000 0.125000 1.625000
v -0.437500 0.118750 0.937500
v -0.437500 0.118750 1.625000
vn -0.0000 -0.0000 -1.0000
vn -0.0143 0.9999 -0.0000
vn 1.0000 -0.0000 -0.0000
vn -0.0000 -0.0000 1.0000
vn -0.0000 -1.0000 -0.0000
vn 0.0143 0.9999 -0.0000
vn -1.0000 -0.0000 -0.0000
vt 0.000000 0.000000
vt 1.000000 0.687500
vt 1.000000 0.000000
vt 0.562500 0.000000
vt 0.562500 0.687500
vt 0.375000 0.687500
vt 0.375000 0.000000
vt 0.437500 0.375000
vt 0.437500 1.000000
vt 0.000000 1.000000
vt -0.000000 0.375000
vt 0.437500 0.000000
vt 0.437500 0.687500
vt -0.000000 0.687500
vt 0.437500 0.437500
s 0
usemtl port
f 7/1/1 2/1/1 9/1/1
f 3/2/2 1/3/2 5/4/2 6/5/2
f 6/2/3 8/6/3 7/7/3 5/3/3
f 4/8/4 3/9/4 6/10/4 8/11/4
f 3/2/3 4/6/3 2/7/3 1/3/3
f 7/1/5 9/12/5 10/13/5 8/14/5
f 4/15/4 8/11/4 10/8/4
f 2/12/3 4/13/3 10/6/3 9/7/3
f 17/1/1 19/1/1 12/1/1
f 13/2/6 16/5/6 15/4/6 11/3/6
f 16/2/7 15/3/7 17/7/7 18/6/7
f 14/8/4 18/11/4 16/10/4 13/9/4
f 13/2/7 11/3/7 12/7/7 14/6/7
f 17/1/5 18/14/5 20/13/5 19/12/5
f 14/15/4 20/8/4 18/11/4
f 12/12/7 19/7/7 20/6/7 14/13/7
o Axis.004
o Axis.005
v 0.625000 1.000000 0.375000
v 0.375000 1.000000 0.375000
v 0.625000 -0.000000 0.375000
v 0.375000 -0.000000 0.375000
v 0.375000 1.000000 0.625000
v 0.625000 1.000000 0.625000
v 0.375000 -0.000000 0.625000
v 0.625000 -0.000000 0.625000
v -0.500000 0.106250 1.500000
v -0.500000 0.106250 -0.500000
v 1.500000 0.106250 -0.500000
v 1.500000 0.106250 1.500000
vn -1.0000 -0.0000 -0.0000
vn -0.0000 -0.0000 -1.0000
vn 1.0000 -0.0000 -0.0000
vn -0.0000 -0.0000 1.0000
vn -0.0000 1.0000 -0.0000
vn -0.0000 -1.0000 -0.0000
vt 0.375000 0.000000
vt 0.625000 0.000000
vt 0.625000 1.000000
vt 0.375000 1.000000
vt 0.375000 0.375000
vt 0.625000 0.375000
vt 0.625000 0.625000
vt 0.375000 0.625000
vt 1.000000 1.000000
vt 0.000000 1.000000
vt 0.000000 0.000000
vt 1.000000 0.000000
s 0
usemtl axis
f 24/16/8 27/17/8 25/18/8 22/19/8
f 23/16/9 24/17/9 22/18/9 21/19/9
f 28/16/10 23/17/10 21/18/10 26/19/10
f 27/16/11 28/17/11 26/18/11 25/19/11
usemtl axis_top
f 26/20/12 21/21/12 22/22/12 25/23/12
f 27/20/13 24/21/13 23/22/13 28/23/13
usemtl bullwheel
f 32/24/13 29/25/13 30/26/13 31/27/13
o Cube.002
v 0.965990 0.875000 -0.625000
v 0.965990 0.125000 -0.625000
v 0.034010 0.875000 -0.624999
v 0.034010 0.125000 -0.624999
v 0.000000 0.875000 0.000000
v 0.062500 0.875000 0.000000
v 0.937500 0.875000 0.000000
v 1.000000 0.875000 0.000000
v 0.062500 0.875000 -0.476712
v 0.062500 0.875000 -0.556218
v 0.937500 0.875000 -0.556218
v 0.937500 0.875000 -0.476713
v -0.295495 0.875000 -0.295494
v -0.295495 0.125000 -0.295494
v -0.207106 0.875000 -0.207106
v 1.625000 0.875000 0.965990
v 1.625000 0.125000 0.965990
v 1.624999 0.875000 0.034010
v 1.624999 0.125000 0.034010
v 1.000000 0.875000 0.062500
v 1.000000 0.875000 0.937500
v 1.000000 0.875000 1.000000
v 1.476712 0.875000 0.062500
v 1.556218 0.875000 0.062500
v 1.556218 0.875000 0.937500
v 1.476713 0.875000 0.937500
v 1.295495 0.125000 1.295495
v 1.295494 0.875000 -0.295495
v 1.295494 0.125000 -0.295495
v 1.207106 0.875000 -0.207106
v 0.034010 0.875000 1.625000
v 0.034010 0.125000 1.625000
v 0.965990 0.875000 1.624999
v 0.965990 0.125000 1.624999
v 0.937500 0.875000 1.000000
v 0.062500 0.875000 1.000000
v 0.000000 0.875000 1.000000
v 0.937500 0.875000 1.476712
v 0.937500 0.875000 1.556218
v 0.062500 0.875000 1.556218
v 0.062500 0.875000 1.476713
v -0.295495 0.125000 1.295495
v 1.295494 0.875000 1.295494
v 1.207106 0.875000 1.207106
v -0.625000 0.875000 0.034010
v -0.625000 0.125000 0.034010
v -0.624999 0.875000 0.965990
v -0.624999 0.125000 0.965990
v 0.000000 0.875000 0.937500
v 0.000000 0.875000 0.062500
v -0.476712 0.875000 0.937500
v -0.556218 0.875000 0.937500
v -0.556218 0.875000 0.062500
v -0.476713 0.875000 0.062500
v -0.295494 0.875000 1.295494
v -0.207106 0.875000 1.207106
v 0.125000 1.000000 0.875000
v 0.125000 1.000000 0.125000
v 0.875000 1.000000 0.875000
v 0.875000 1.000000 0.125000
v 0.000000 1.000000 1.000000
v 0.000000 1.000000 0.000000
v 1.000000 1.000000 0.000000
v 1.000000 1.000000 1.000000
v 0.500000 0.875000 0.500000
v 0.125000 0.937500 0.875000
v 0.125000 0.937500 0.125000
v 0.875000 0.937500 0.125000
v 0.875000 0.937500 0.875000
v -0.246859 0.875000 -0.246859
v -0.246859 0.875000 1.246859
v 1.246859 0.875000 1.246859
v 1.246859 0.875000 -0.246859
v -0.499999 0.125000 0.914213
v 0.085787 0.125000 -0.499999
v 1.207106 0.125000 -0.207106
v -0.207106 0.125000 -0.207106
v 1.499999 0.125000 0.085787
v 1.207107 0.125000 1.207107
v 0.914213 0.125000 1.499999
v -0.207107 0.125000 1.207106
v -0.500000 0.125000 0.085787
v 0.914213 0.125000 -0.500000
v 1.500000 0.125000 0.914213
v 0.085787 0.125000 1.500000
v 0.500000 0.112500 0.500000
v -0.499999 0.112500 0.914213
v 0.085787 0.112500 -0.499999
v 1.207106 0.112500 -0.207106
v -0.207106 0.112500 -0.207106
v 1.499999 0.112500 0.085787
v 1.207107 0.112500 1.207107
v 0.914213 0.112500 1.499999
v -0.207107 0.112500 1.207106
v -0.500000 0.112500 0.085787
v 0.914213 0.112500 -0.500000
v 1.500000 0.112500 0.914213
v 0.085787 0.112500 1.500000
v 0.250000 0.000000 0.750000
v 0.250000 0.000000 0.250000
v 0.750000 0.000000 0.750000
v 0.750000 0.000000 0.250000
v 0.125000 0.125000 0.875000
v 0.125000 0.125000 0.125000
v 0.875000 0.125000 0.125000
v 0.875000 0.125000 0.875000
v 0.125000 0.000000 0.125000
v 0.125000 0.000000 0.875000
v 0.875000 0.000000 0.125000
v 0.875000 0.000000 0.875000
v 0.250000 0.062500 0.250000
v 0.250000 0.062500 0.750000
v 0.750000 0.062500 0.250000
v 0.750000 0.062500 0.750000
vn -0.7071 -0.0000 -0.7071
vn -0.0000 1.0000 -0.0000
vn -0.0000 -0.0000 -1.0000
vn 0.7071 -0.0000 -0.7071
vn 1.0000 -0.0000 -0.0000
vn 0.7071 -0.0000 0.7071
vn -0.0000 -0.0000 1.0000
vn -0.7071 -0.0000 0.7071
vn -1.0000 -0.0000 -0.0000
vn -0.0000 -1.0000 -0.0000
vt 0.750000 0.375000
vt 0.750000 0.750000
vt 0.517005 0.750000
vt 0.517005 0.375000
vt 0.031250 0.965610
vt 0.468750 0.965609
vt 0.482995 1.000000
vt 0.017005 1.000000
vt 0.750000 0.965610
vt 0.750000 0.937500
vt 0.940640 0.937500
vt 0.968750 0.965610
vt 0.031250 0.925857
vt 0.468750 0.925857
vt 0.982995 0.750000
vt 0.982995 0.375000
vt 0.750000 0.937500
vt 0.559359 0.937500
vt 0.727903 0.768956
vt 0.750000 0.791054
vt 0.531250 0.965609
vt 0.750000 0.965610
vt 0.772097 0.768957
vt 0.750000 0.791054
vt 0.031250 0.925857
vt 0.031250 0.687500
vt 0.468750 0.687500
vt 0.468750 0.925857
vt 0.968750 0.965609
vt 0.940641 0.937500
vt 0.750000 0.937500
vt 0.750000 0.965610
vt 0.559360 0.937500
vt 0.531250 0.965610
vt 0.750000 0.965610
vt 0.000000 0.500000
vt 0.000000 0.000000
vt 0.062500 0.062500
vt 0.062500 0.437500
vt 0.500000 0.000000
vt 0.500000 0.500000
vt 0.437500 0.437500
vt 0.437500 0.062500
vt 0.437500 0.593750
vt 0.062500 0.593750
vt 0.062500 0.562500
vt 0.437500 0.562500
vt 0.000689 0.562694
vt 0.031930 0.500212
vt 0.469307 0.500212
vt 0.500548 0.562694
vt 0.000689 0.562818
vt 0.031930 0.500336
vt 0.469307 0.500336
vt 0.500548 0.562818
vt 0.031930 0.500460
vt 0.469307 0.500459
vt 0.500548 0.562942
vt 0.000689 0.562942
vt 0.000689 0.562571
vt 0.031930 0.500088
vt 0.469307 0.500088
vt 0.500548 0.562571
vt 0.437500 0.437500
vt 0.062500 0.437500
vt 0.062500 0.062500
vt 0.437500 0.062500
vt 0.000689 0.500088
vt 0.500548 0.500336
vt 0.500548 0.500088
vt 0.000689 0.500212
vt 0.500548 0.500212
vt 0.000689 0.500460
vt 0.500548 0.500459
vt 0.000689 0.500336
vt 0.517005 1.000000
vt 0.750000 1.000000
vt 0.982995 1.000000
vt 0.017005 0.687500
vt 0.042893 0.625000
vt 0.250000 0.625000
vt 0.250000 0.687500
vt 0.000000 0.593750
vt 0.031250 0.593750
vt 0.031250 0.625000
vt 0.000000 0.625000
vt 0.482995 0.687500
vt 0.042893 0.625000
vt 0.457107 0.625000
vt 0.500000 0.609375
vt 0.000000 0.609375
vt 0.937500 0.312500
vt 0.937500 0.062500
vt 0.968750 0.062500
vt 0.968750 0.312500
vt 0.875000 0.000000
vt 0.937500 0.000000
vt 0.937500 0.375000
vt 0.875000 0.375000
vt 0.562500 0.062500
vt 0.562500 0.312500
vt 0.500000 0.375000
vt 0.500000 0.000000
vt 0.812500 0.062500
vt 0.875000 0.000000
vt 0.812500 0.312500
vt 0.875000 0.375000
s 0
usemtl casing
f 46/28/14 45/29/14 35/30/14 36/31/14
f 42/32/15 43/33/15 33/34/15 35/35/15
f 102/36/15 47/37/15 41/38/15 42/39/15
f 42/32/15 41/40/15 44/41/15 43/33/15
f 35/42/16 33/30/16 34/31/16 36/43/16
f 34/43/17 33/42/17 60/29/17 61/28/17
f 62/44/15 44/45/15 39/46/15 40/47/15
f 43/48/15 44/45/15 62/44/15 105/49/15
f 38/50/15 41/38/15 47/37/15 37/51/15
f 41/52/15 38/53/15 39/54/15 44/55/15
f 61/28/17 60/29/17 50/30/17 51/31/17
f 56/32/15 57/33/15 48/34/15 50/35/15
f 105/36/15 62/37/15 55/38/15 56/39/15
f 56/32/15 55/40/15 58/41/15 57/33/15
f 50/42/18 48/30/18 49/31/18 51/43/18
f 49/43/19 48/42/19 75/29/19 59/28/19
f 76/44/15 58/45/15 53/46/15 54/47/15
f 57/56/15 58/57/15 76/58/15 104/59/15
f 52/50/15 55/38/15 62/37/15 40/51/15
f 55/52/15 52/53/15 53/54/15 58/55/15
f 59/28/19 75/29/19 65/30/19 66/31/19
f 71/32/15 72/33/15 63/34/15 65/35/15
f 104/59/15 76/37/15 70/60/15 71/61/15
f 71/32/15 70/40/15 73/41/15 72/33/15
f 65/42/20 63/30/20 64/31/20 66/43/20
f 64/43/21 63/42/21 87/29/21 74/28/21
f 88/44/15 73/45/15 68/46/15 69/47/15
f 72/48/15 73/45/15 88/44/15 103/62/15
f 67/50/15 70/38/15 76/37/15 54/51/15
f 70/52/15 67/53/15 68/54/15 73/55/15
f 74/28/21 87/29/21 79/30/21 80/31/21
f 84/32/15 85/33/15 77/34/15 79/35/15
f 103/62/15 88/37/15 83/38/15 84/39/15
f 84/32/15 83/40/15 86/41/15 85/33/15
f 79/42/22 77/30/22 78/31/22 80/43/22
f 78/43/14 77/42/14 45/29/14 46/28/14
f 47/44/15 86/45/15 82/46/15 37/47/15
f 85/48/15 86/45/15 47/44/15 102/36/15
f 81/50/15 83/38/15 88/37/15 69/51/15
f 83/52/15 81/53/15 82/54/15 86/55/15
f 94/63/15 93/64/15 89/65/15 90/66/15
f 96/67/15 95/68/15 92/69/15 91/70/15
f 89/65/15 93/64/15 96/67/15 91/70/15
f 89/71/16 91/72/16 101/73/16 98/74/16
f 96/75/18 53/76/18 52/77/18 95/78/18
f 94/79/22 82/80/22 81/81/22 93/82/22
f 39/83/16 38/84/16 94/85/16 95/86/16
f 95/68/15 94/63/15 90/66/15 92/69/15
f 93/87/20 68/88/20 67/89/20 96/90/20
f 100/91/15 99/92/15 98/93/15 101/94/15
f 92/71/20 90/72/20 99/73/20 100/74/20
f 91/71/22 92/72/22 100/73/22 101/74/22
f 90/71/18 89/72/18 98/73/18 99/74/18
f 69/95/20 68/88/20 93/87/20
f 69/96/22 93/82/22 81/81/22
f 54/97/20 96/90/20 67/89/20
f 54/98/18 53/76/18 96/75/18
f 40/99/18 95/78/18 52/77/18
f 40/100/16 39/83/16 95/86/16
f 37/101/16 94/85/16 38/84/16
f 37/102/22 82/80/22 94/79/22
f 77/103/15 85/48/15 102/36/15 45/104/15
f 45/104/15 102/36/15 42/39/15 35/105/15
f 87/104/15 103/62/15 84/39/15 79/105/15
f 63/103/15 72/48/15 103/62/15 87/104/15
f 75/104/15 104/59/15 71/61/15 65/103/15
f 48/105/15 57/56/15 104/59/15 75/104/15
f 60/104/15 105/36/15 56/39/15 50/105/15
f 33/103/15 43/48/15 105/49/15 60/104/15
f 36/106/23 107/107/23 109/108/23 46/109/23
f 107/110/16 115/111/16 128/112/16 120/113/16
f 51/114/23 49/106/23 116/115/23 110/116/23
f 116/110/19 111/111/19 124/112/19 129/113/19
f 51/106/23 110/107/23 108/108/23 61/109/23
f 108/110/17 110/111/17 123/112/17 121/113/17
f 66/114/23 64/106/23 117/115/23 112/116/23
f 106/110/22 114/111/22 127/112/22 119/113/22
f 66/106/23 112/107/23 111/108/23 59/109/23
f 117/110/21 113/111/21 126/112/21 130/113/21
f 80/114/23 78/106/23 114/115/23 106/116/23
f 110/110/18 116/111/18 129/112/18 123/113/18
f 80/106/23 106/107/23 113/108/23 74/109/23
f 111/110/19 112/111/19 125/112/19 124/113/19
f 114/110/14 109/111/14 122/112/14 127/113/14
f 109/110/14 107/111/14 120/112/14 122/113/14
f 114/116/23 78/114/23 46/109/23 109/108/23
f 115/110/17 108/111/17 121/112/17 128/113/17
f 117/116/23 64/114/23 74/109/23 113/108/23
f 112/110/20 117/111/20 130/112/20 125/113/20
f 116/116/23 49/114/23 59/109/23 111/108/23
f 113/110/21 106/111/21 119/112/21 126/113/21
f 115/116/23 34/114/23 61/109/23 108/108/23
f 36/114/23 34/106/23 115/115/23 107/116/23
f 120/110/23 128/113/23 118/117/23
f 120/113/23 118/117/23 122/118/23
f 123/110/23 129/113/23 118/117/23
f 123/113/23 118/117/23 121/118/23
f 125/110/23 130/113/23 118/117/23
f 125/113/23 118/117/23 124/118/23
f 119/110/23 127/113/23 118/117/23
f 119/113/23 118/117/23 126/118/23
f 118/117/23 127/110/23 122/118/23
f 118/117/23 130/110/23 126/118/23
f 118/117/23 129/110/23 124/118/23
f 118/117/23 128/110/23 121/118/23
f 133/119/16 131/120/16 144/121/16 146/122/16
f 142/123/20 138/124/20 135/125/20 140/126/20
f 141/123/18 137/124/18 138/125/18 142/126/18
f 139/123/16 136/124/16 137/125/16 141/126/16
f 140/123/22 135/124/22 136/125/22 139/126/22
f 132/127/23 131/128/23 140/129/23 139/130/23
f 134/131/23 132/127/23 139/130/23 141/132/23
f 133/133/23 134/131/23 141/132/23 142/134/23
f 131/128/23 133/133/23 142/134/23 140/129/23
f 143/127/23 145/131/23 146/133/23 144/128/23
f 132/119/20 134/120/20 145/121/20 143/122/20
f 134/119/22 133/120/22 146/121/22 145/122/22
f 131/119/18 132/120/18 143/121/18 144/122/18
